<?xml version="1.0" encoding="UTF-8" standalone="no"?>
<svg
   xmlns:dc="http://purl.org/dc/elements/1.1/"
   xmlns:cc="http://creativecommons.org/ns#"
   xmlns:rdf="http://www.w3.org/1999/02/22-rdf-syntax-ns#"
   xmlns:svg="http://www.w3.org/2000/svg"
   xmlns="http://www.w3.org/2000/svg"
   xmlns:sodipodi="http://sodipodi.sourceforge.net/DTD/sodipodi-0.dtd"
   xmlns:inkscape="http://www.inkscape.org/namespaces/inkscape"
   viewBox="0 0 1440 98.4088"
   version="1.1"
   id="svg4"
   sodipodi:docname="wave (11).svg"
   inkscape:version="1.0.1 (3bc2e813f5, 2020-09-07)">
  <metadata
     id="metadata10">
    <rdf:RDF>
      <cc:Work
         rdf:about="">
        <dc:format>image/svg+xml</dc:format>
        <dc:type
           rdf:resource="http://purl.org/dc/dcmitype/StillImage" />
        <dc:title></dc:title>
      </cc:Work>
    </rdf:RDF>
  </metadata>
  <defs
     id="defs8" />
  
  <path
     fill="#1f2937"
     fill-opacity="1"
     d="m 0,48.408796 40,-5.3 c 40,-5.7 120,-15.7 200,-5.4 80,10.7 160,42.7 240,53.4 80,10.300004 160,0.3 240,-26.7 80,-27 160,-69.0000005 240,-64.00000045 80,4.99999995 160,59.00000045 240,74.70000045 80,16.3 160,-5.7 200,-16 l 40,-10.7 V 176.4088 h -40 c -40,0 -120,0 -200,0 -80,0 -160,0 -240,0 -80,0 -160,0 -240,0 -80,0 -160,0 -240,0 -80,0 -160,0 -240,0 -80,0 -160,0 -200,0 H 0 Z"
     id="path2" />
</svg>
